<?xml version="1.0" encoding="UTF-8"?>
<!DOCTYPE svg PUBLIC "-//W3C//DTD SVG 1.1//EN" "http://www.w3.org/Graphics/SVG/1.1/DTD/svg11.dtd">
<svg version="1.1" xmlns="http://www.w3.org/2000/svg" xmlns:xlink="http://www.w3.org/1999/xlink" x="0" y="0" width="1028" height="581" viewBox="0, 0, 1028, 581">
  <defs>
    <clipPath id="Clip_1">
      <path d="M0.06,0.748 L1027.21,0.748 L1027.21,580.94 L0.06,580.94 z"/>
    </clipPath>
  </defs>
  <g id="Layer_1">
    <g clip-path="url(#Clip_1)">
      <path d="M222.62,569.416 C222.702,563.702 226.948,559.132 226.92,553.263 C226.911,551.364 229.734,552.256 231.236,552.253 C259.363,552.194 287.489,552.209 315.616,552.209 C325.269,552.209 334.924,552.308 344.574,552.151 C347.506,552.103 348.67,552.813 348.686,555.985 C348.714,561.205 351.597,565.378 354.673,569.359 C310.655,569.378 266.638,569.397 222.62,569.416" fill="#FFFFFF"/>
      <path d="M622.954,570.749 C620.685,577.711 618.706,578.983 611.751,577.613 C610.324,577.332 609.168,577.708 607.919,578.096 C595.292,582.022 582.555,581.775 570.026,578.123 C553.765,573.383 546.19,561.048 543.128,545.313 C542.141,540.239 541.727,535.084 542.851,529.93 C543.836,525.41 541.406,521.393 539.195,518.373 C532.111,508.702 531.185,497.392 529.175,486.34 C525.129,464.088 521.35,441.787 517.326,419.53 C514.367,403.163 521.245,390.834 535.539,387.227 C538.33,386.522 541.149,386.565 543.974,386.559 C559.303,386.531 574.632,386.524 589.961,386.495 C590.059,386.495 590.157,386.291 590.521,385.885 C586.019,381.666 581.295,377.591 576.974,373.127 C561.693,357.34 550.918,338.744 543.501,318.163 C542.546,315.512 541.515,313.968 538.444,313.874 C528.747,313.576 520.859,309.456 514.24,301.254 C513.087,305.891 512.191,309.968 511.056,313.978 C502.068,345.732 484.598,371.153 455.289,387.381 C444.582,393.309 433.107,397.314 420.544,396.672 C416.278,396.454 413.835,399.978 409.515,401.353 C413.814,404.529 417.677,407.272 421.421,410.168 C440.163,424.663 456.977,440.928 467.25,462.731 C477.821,485.165 478.592,507.73 465.964,529.679 C458.315,542.974 445.994,550.849 431.892,555.971 C428.077,557.357 426.511,559.24 427.161,563.27 C427.582,565.879 427.686,568.595 427.506,571.234 C427.072,577.595 420.578,580.686 415.599,576.696 C413.496,575.011 412.336,575.384 410.12,576.211 C394.64,581.988 378.931,583.018 363.395,576.639 C354.484,572.981 348.629,566.35 348.201,556.27 C348.037,552.396 345.628,553.571 343.787,553.567 C318.627,553.512 293.466,553.53 268.306,553.53 C256.809,553.53 245.311,553.598 233.815,553.478 C231.242,553.452 230.168,553.839 229.949,556.847 C229.409,564.267 225.536,569.958 219.418,574.123 C205.154,583.832 175.03,582.895 161.461,572.329 C148.343,562.115 142.126,541.147 147.406,523.813 C148.309,520.85 148.006,518.983 146.048,516.702 C139.495,509.07 138.949,499.337 137.284,490.057 C132.967,465.994 128.739,441.914 124.573,417.825 C124.096,415.064 123.627,412.063 124.219,409.411 C125.25,404.795 123.216,403.441 119.273,402.036 C92.622,392.546 76.033,372.519 64.021,348.042 C50.191,319.863 46.736,289.71 49.539,258.976 C55.03,198.773 77.589,145.176 116.349,98.978 C152.972,55.328 199.862,27.004 256.388,19.529 C330.87,9.681 396.978,30.682 452.255,82.642 C462.224,92.012 470.199,103.156 477.869,115.075 C479.877,111.258 481.44,107.673 483.527,104.423 C494.083,87.987 509.525,77.608 526.971,69.76 C538.404,64.616 550.387,61.259 562.674,59.031 C565.477,58.523 567.554,57.318 569.671,55.628 C599.581,31.75 632.704,14.095 670.249,5.913 C715.172,-3.877 759.321,0.664 802.341,16.033 C843.989,30.912 879.811,54.501 906.291,90.488 C931.556,124.823 943.258,163.485 939.879,206.239 C938.546,223.105 934.424,239.377 926.678,254.537 C925.483,256.877 925.561,258.744 926.237,261.069 C928.994,270.553 929.033,280.197 926.639,289.693 C922.466,306.247 908.777,315.824 891.477,313.892 C886.207,313.304 884.55,314.896 882.841,319.541 C869.291,356.354 845.501,384.324 809.769,402.261 C820.565,409.838 830.699,417.662 839.787,426.73 C856.193,443.098 869.43,461.254 873.429,484.875 C878.296,513.62 865.149,539.882 838.958,552.615 C836.044,554.032 835.032,555.386 835.695,558.588 C836.399,561.99 836.465,565.527 836.783,569.007 C837.222,573.808 835.107,577.179 831.028,578.229 C827.015,579.262 823.422,577.262 822.112,572.435 C821.008,568.368 819.472,570.837 818.06,571.774 C800.955,583.124 782.806,583.02 764.118,576.681 C760.607,575.49 757.885,572.933 755.006,570.692 C750.355,568.573 748.821,564.291 747.969,559.833 C747.298,556.325 745.489,555.211 742.145,555.213 C706.003,555.24 669.86,555.232 633.718,555.217 C630.321,555.216 628.604,556.606 627.777,559.896 C626.808,563.752 625.616,567.603 622.954,570.749" fill="#6E4100"/>
      <path d="M1027.01,359.647 C1027.01,373.295 1021.64,380.357 1009.36,383.65 C1004.03,385.078 998.579,385.768 993.055,385.661 C990.508,385.612 988.408,384.781 988.061,381.852 C987.72,378.972 989.421,377.673 991.938,376.91 C993.508,376.435 995.108,375.838 996.477,374.958 C1000.79,372.186 1005.12,368.78 1004.63,363.268 C1004.09,357.147 998.926,353.825 994.175,350.627 C992.3,349.365 991.844,350.974 991.345,352.092 C983.355,370 973.96,387.268 966.855,405.575 C964.305,412.145 957.397,416.562 948.214,416.463 C942.373,416.4 936.662,415.204 931.514,412.06 C921.282,405.811 920.424,394.473 929.655,386.698 C937.408,380.168 951.659,379.239 960.014,385.537 C963.915,388.478 964.548,386.79 966.003,383.657 C975.321,363.596 984.758,343.59 994.182,323.578 C997.032,317.528 999.798,316.809 1004.88,321.13 C1012.16,327.321 1018.38,334.463 1022.99,342.909 C1026,348.433 1027.83,354.223 1027.01,359.647" fill="#FF7164"/>
      <path d="M81.145,73.267 C80.986,76.135 79.883,78.942 75.893,79.976 C70.261,81.435 64.763,83.498 59.073,84.615 C55.055,85.404 53.785,87.584 53.084,91.174 C51.651,98.516 49.772,105.769 48.271,113.099 C47.383,117.437 44.355,118.645 40.621,118.697 C36.862,118.75 33.774,117.553 32.857,113.249 C31.263,105.769 29.446,98.334 27.933,90.838 C27.247,87.442 25.966,85.394 22.162,84.636 C16.476,83.502 10.98,81.447 5.344,80.019 C1.392,79.018 -0.007,76.449 -0,72.712 C0.007,68.953 1.498,66.443 5.421,65.451 C11.218,63.985 16.912,62.11 22.715,60.671 C25.608,59.954 27.138,58.678 27.71,55.558 C29.061,48.203 30.956,40.948 32.412,33.61 C33.34,28.932 35.976,26.65 40.678,26.777 C45.031,26.894 47.686,28.769 48.533,33.427 C49.871,40.783 51.819,48.027 53.266,55.367 C53.848,58.319 55.146,59.904 58.15,60.635 C64.123,62.087 70.03,63.832 75.921,65.6 C79.606,66.706 81.041,68.792 81.145,73.267" fill="#FFCF00"/>
    </g>
    <path d="M622.954,570.749 C623.035,565.035 627.281,560.465 627.254,554.596 C627.245,552.697 630.068,553.589 631.569,553.586 C659.696,553.527 687.823,553.543 715.949,553.543 C725.602,553.543 735.257,553.641 744.907,553.484 C747.84,553.436 749.003,554.147 749.02,557.318 C749.047,562.539 751.93,566.712 755.006,570.692 C710.989,570.711 666.971,570.73 622.954,570.749" fill="#87C9D5"/>
    <path d="M850.26,348.758 C837.569,367.159 820.568,380.391 800.59,389.993 C785.037,397.468 768.522,401.789 751.567,404.611 C748.605,405.103 746.645,404.728 744.652,401.745 C737.924,391.673 728.293,386.517 716.002,386.534 C685.201,386.576 654.399,386.543 623.597,386.557 C621.262,386.558 619.056,386.483 616.894,385.219 C601.191,376.039 587.62,364.512 577.099,349.563 C577.813,346.816 580.237,347.282 581.924,347.513 C597.904,349.698 610.64,334.945 615.098,323.461 C618.576,314.505 616.188,306.117 612.498,297.885 C606.294,284.044 594.473,276.298 580.291,277.094 C570.782,277.628 563.371,282.49 556.96,289.207 C555.571,290.662 554.815,293.176 552.031,292.761 C547.491,276.591 545.866,259.975 546.751,243.358 C548.864,203.66 560.082,166.832 584.197,134.656 C597.046,117.512 613.166,104.044 632.568,93.48 C634.556,105.309 637.593,116.421 642.095,127.085 C649.082,143.63 657.994,158.92 671.139,171.442 C676.128,176.194 681.629,180.163 688.074,182.696 C700.297,187.498 712.488,184.658 721.22,174.878 C727.08,168.314 730.946,160.632 733.531,151.602 C739.005,157.534 744.085,163.395 750.036,168.392 C758.761,175.718 768.16,181.928 778.699,186.295 C799.465,194.9 814.87,188.129 822.302,167.138 C826.47,170.409 830.499,173.818 834.778,176.877 C844.398,183.756 854.859,188.728 866.888,189.313 C870.037,189.466 871.047,190.917 871.837,193.565 C881.307,225.301 883.041,257.34 875.831,289.76 C872.467,290.932 871.147,287.988 869.32,286.353 C857.132,275.445 835.365,273.929 823.98,283.297 C807.462,296.889 804.865,315.154 816.863,332.922 C823.402,342.607 832.207,347.881 844.138,347.446 C846.227,347.369 848.517,346.954 850.26,348.758" fill="#FEF8EA"/>
    <path d="M144.102,302.836 C126.787,301.336 117.592,282.6 126.943,267.876 C130.109,262.892 136.889,262.467 140.079,267.142 C142.242,270.312 145.196,271.463 148.724,270.456 C152.075,269.499 154.179,266.941 154.015,263.422 C153.87,260.326 154.827,260.184 157.568,260.525 C170.437,262.129 179.866,256.364 185.196,244.05 C189.422,234.285 190.393,223.804 191.699,213.441 C192.145,209.898 193.379,209.751 196.392,210.157 C206.923,211.579 217.462,213.408 228.161,211.81 C237.409,210.428 245.005,206.448 249.06,197.618 C250.497,194.489 253.216,194.547 255.613,193.89 C292.509,183.784 326.954,168.485 357.987,145.887 C371.359,136.149 383.736,125.294 394.565,112.768 C396.677,110.326 397.983,109.942 400.906,111.835 C433.599,133.008 453.668,163.283 464.931,199.965 C473.096,226.559 476.337,253.603 471.991,281.291 C471.707,283.098 471.299,284.885 470.949,286.681 C469.36,287.369 468.009,286.553 466.686,285.914 C448.838,277.303 432.829,285.35 424.104,301.7 C412.428,323.579 426.983,342.049 441.852,348.793 C443.051,349.337 444.427,349.566 445.219,350.79 C434.251,367.234 419.408,379.268 402.122,388.46 C388.21,395.858 373.293,400.375 357.908,403.494 C355.26,404.031 353.543,403.748 351.707,401.127 C344.734,391.173 334.96,386.466 322.709,386.51 C290.728,386.623 258.745,386.515 226.763,386.599 C223.644,386.608 220.953,385.985 218.311,384.32 C204.527,375.629 192.273,365.312 183.042,351.711 C184.648,350.072 186.743,350.466 188.694,350.421 C204.006,350.068 213.028,341.288 218.774,328.072 C224.56,314.766 222.033,303.1 211.913,292.889 C195.839,276.67 169.64,279.803 157.808,299.514 C156.118,302.33 154.244,303.658 151.016,303.232 C148.728,302.931 146.371,303.629 144.102,302.836" fill="#FEF8EA"/>
    <path d="M557.085,75.717 C563.361,73.506 570.052,73.374 576.476,71.871 C579.335,71.202 581.676,69.863 582.346,67.123 C583.063,64.192 585.01,62.699 587.166,61.134 C617.224,39.319 649.95,23.437 686.982,18.051 C718.49,13.468 749.685,16.264 780.325,24.803 C819.28,35.659 853.843,54.457 881.508,84.2 C913.048,118.107 928.133,158.478 924.92,205.065 C924.071,217.392 920.859,229.283 916.516,240.872 C915.282,244.166 913.823,245.351 910.337,243.743 C906.766,242.097 902.81,242.49 899,242.783 C896.309,242.99 895.137,242.361 895.064,239.353 C894.655,222.442 890.953,206.087 886.305,189.913 C885.602,187.466 885.283,185.497 887.687,183.315 C890.373,180.877 890.485,177.354 888.246,174.221 C886.34,171.555 883.371,169.789 880.468,171.247 C866.729,178.145 855.158,172.465 844.21,165.004 C831.662,156.452 821.23,145.868 815.723,131.184 C813.793,126.038 809.886,124.346 805.41,126.01 C801.586,127.432 799.816,131.647 801.601,136.53 C804.522,144.523 807.405,152.436 807.189,161.163 C806.927,171.774 800.255,177.003 789.935,174.103 C777.64,170.648 767.337,163.621 757.988,155.194 C748.237,146.404 739.713,136.669 736.704,123.342 C736.232,121.254 736.165,119.073 735.934,116.932 C735.443,112.377 732.235,109.214 728.222,109.349 C723.887,109.494 721.053,112.404 720.977,117.252 C720.819,127.223 721.488,137.248 719.043,147.057 C717.328,153.941 714.419,160.22 709.254,165.287 C703.959,170.483 699.301,171.31 692.486,168.092 C681.476,162.892 674.124,153.812 667.925,143.871 C654.957,123.074 646.085,100.907 646.91,75.772 C647.08,70.59 644.371,67.445 640.008,66.955 C635.943,66.499 632.974,69.198 632.014,74.62 C631.714,76.315 631.036,77.253 629.569,78.006 C576.888,105.042 548.897,150.049 536.391,206.262 C534.737,213.698 533.53,221.233 532.117,228.722 C529.614,228.941 529.13,226.818 528.535,225.266 C520.56,204.49 521.224,183.972 530.642,163.779 C531.274,162.422 532.187,161.216 533.021,159.97 C533.851,158.732 535.034,157.812 535.947,156.645 C533.39,155.291 531.38,157.246 529.133,157.69 C528.974,148.635 528.653,148.343 516.969,146.601 C508.802,140.637 505.589,129.854 508.526,118.905 C510.934,109.926 516.133,102.657 522.451,96.162 C530.55,87.834 540.178,81.723 551.09,77.677 L550.999,77.718 C553.045,77.104 555.218,76.876 557.085,75.717" fill="#C9A76F"/>
    <path d="M156.122,81.553 C167.006,70.511 180.455,63.141 193.898,55.977 C220.044,42.043 247.702,33.253 277.665,32.418 C337.621,30.747 390.935,48.103 436.003,88.121 C463.018,112.11 478.611,143.441 490.173,177.116 C493.9,187.97 495.322,199.043 495.999,210.344 C496.299,215.367 497.419,220.32 499.388,224.865 C503.307,233.906 501.91,243.412 503.203,253.114 C500.61,252.034 498.665,250.577 496.673,250.51 C489.226,250.257 488.699,245.406 488.115,239.602 C484.823,206.869 475.47,176.069 457.759,148.109 C445.278,128.406 429.166,112.239 409.599,99.534 C407.232,97.997 405.237,96.401 403.869,93.632 C401.331,88.496 394.983,88.288 391.142,93.192 C385.582,100.289 379.675,107.042 373.212,113.316 C345.469,140.247 312.535,158.582 276.41,171.566 C269.377,174.093 262.136,176.037 255.057,178.445 C252.277,179.391 250.775,179.078 250.288,175.886 C249.554,171.075 247.814,166.512 245.577,162.256 C243.999,159.254 244.878,157.549 246.963,155.408 C263.097,138.843 276.252,120.061 287.766,100.079 C288.264,99.215 288.741,98.332 289.148,97.423 C291.167,92.914 289.895,88.776 285.901,86.767 C282.158,84.885 278.127,86.221 275.834,90.393 C267.301,105.912 257.293,120.413 245.962,134.009 C243.724,136.694 241.316,139.242 239.154,141.985 C237.086,144.608 235.699,145.294 233.348,141.927 C229.25,136.056 224.507,130.652 218.495,126.554 C208.12,119.483 197.054,120.379 188.083,129.235 C177.191,139.988 172.791,153.956 169.254,168.27 C167.333,176.045 167.467,176.137 159.337,175.802 C147.612,175.319 135.979,175.964 124.828,179.829 C114.357,183.457 105.427,188.938 103.752,201.356 C103.058,206.506 104.414,211.261 106.583,215.816 C112.118,227.439 120.416,236.926 129.829,245.524 C130.793,246.404 132.07,246.965 132.608,248.566 C131.486,248.896 130.426,249.32 129.325,249.515 C120.393,251.094 114.751,256.609 111.793,264.822 C108.38,274.297 107.984,284.056 110.808,293.773 C114.709,307.198 126.066,316.333 140.946,317.657 C146.614,318.162 149.844,319.902 151.912,325.86 C157.922,343.177 167.503,358.582 179.997,372.042 C182.333,374.559 182.457,376.041 179.521,377.706 C179.377,377.787 179.237,377.889 179.124,378.009 C172.099,385.49 163.452,387.854 153.412,386.679 C148.64,386.12 143.758,386.397 139.227,388.516 C127.769,384.523 119.39,376.45 112.009,367.332 C100.72,353.384 93.727,337.201 88.87,320.074 C82.177,296.475 79.593,272.341 80.929,247.895 C81.712,233.562 84.885,219.547 88.9,205.755 C98.517,172.719 113.067,141.944 131.732,113.115 C138.968,101.94 146.584,90.985 156.122,81.553" fill="#DCAE53"/>
    <path d="M651.536,514.7 C623.058,514.7 594.581,514.704 566.103,514.698 C555.944,514.695 548.633,508.953 546.799,498.872 C541.741,471.075 536.818,443.252 532.039,415.406 C530.388,405.784 534.171,401.564 543.848,401.56 C601.136,401.539 658.424,401.536 715.711,401.563 C725.969,401.568 733.372,407.87 735.164,417.939 C740.057,445.432 744.952,472.924 749.816,500.422 C751.531,510.117 747.704,514.696 737.967,514.698 C709.157,514.703 680.346,514.7 651.536,514.7" fill="#FEFEFE"/>
    <path d="M259.646,514.7 C230.832,514.7 202.017,514.705 173.203,514.697 C163.346,514.694 155.815,508.305 154.089,498.553 C149.224,471.055 144.362,443.556 139.47,416.062 C137.705,406.147 141.471,401.56 151.605,401.557 C208.735,401.542 265.864,401.54 322.993,401.559 C332.938,401.563 340.602,407.333 342.34,416.841 C347.598,445.625 352.636,474.449 357.618,503.282 C358.774,509.972 354.042,514.685 346.59,514.691 C317.609,514.714 288.628,514.7 259.646,514.7" fill="#FEFEFE"/>
    <path d="M833.422,538.491 C832.029,515.187 813.835,494.371 791.589,489.914 C776.034,486.798 765.839,496.402 767.836,512.393 C768.052,514.122 767.836,514.899 765.981,514.833 C764.607,514.783 763.664,514.447 764.096,512.804 C767.443,500.094 762.444,488.104 760.637,475.899 C758.034,458.313 754.547,440.857 751.357,423.359 C750.926,420.992 751.089,419.87 753.97,419.424 C766.474,417.488 778.782,414.633 790.696,410.291 C792.259,409.721 793.49,409.761 794.891,410.667 C816.469,424.622 836.199,440.542 849.564,463.021 C859.115,479.086 862.375,496.091 855.983,514.202 C852.067,525.296 844.249,532.809 833.422,538.491" fill="#87C9D5"/>
    <path d="M395.314,411.963 C396.96,411.467 397.946,412.057 398.927,412.712 C418.164,425.561 435.808,440.122 448.465,459.844 C459.203,476.575 463.735,494.397 456.924,513.928 C452.791,525.778 444.367,533.522 432.936,539.188 C432.65,536.245 432.398,533.805 432.178,531.363 C431.567,524.575 429.386,518.376 425.056,513.061 C417.797,504.15 408.993,497.154 398.47,492.498 C389.321,488.45 380.197,487.652 371.393,494.348 C369.517,483.555 367.848,473.235 365.859,462.976 C365.311,460.15 365.981,459.348 368.715,458.74 C391.278,453.729 402.031,434.867 395.314,411.963" fill="#FEFEFE"/>
    <path d="M153.394,190.742 C159.588,190.557 165.663,191.412 171.668,192.852 C178.606,194.516 181.873,191.817 182.301,184.789 C183.216,169.778 186.971,155.585 195.881,143.181 C201.397,135.502 206.495,134.966 213.103,141.579 C223.606,152.092 231.773,164.215 235.5,178.748 C237.992,188.463 237.102,196.298 223.286,197.195 C217.918,197.544 212.622,197.097 207.425,196.394 C200.902,195.511 194.224,195.563 187.862,193.11 C183.909,191.586 179.821,194.573 178.877,199.469 C177.37,207.288 176.329,215.198 175.183,223.084 C174.464,228.036 173.5,232.938 171.597,237.56 C168.233,245.728 162.901,247.76 154.783,244.181 C143.785,239.333 135.813,230.84 128.286,221.891 C124.972,217.95 121.999,213.692 119.982,208.901 C117.497,202.997 118.756,199.569 124.335,196.491 C131.234,192.685 141.063,190.74 153.394,190.742" fill="#FF7164"/>
    <path d="M156.122,81.553 C155.366,85.228 152.212,87.245 150.119,89.946 C117.744,131.738 94.086,177.851 84.897,230.11 C77.1,274.448 83.616,317.285 106.236,356.845 C113.539,369.619 123.764,379.833 137.136,386.52 C138.067,386.986 138.865,387.497 139.224,388.517 C135.425,391.234 131.619,390.356 127.486,389.061 C106.885,382.608 92.965,368.423 82.349,350.424 C68.695,327.274 62.978,301.905 63.959,275.368 C66.699,201.281 95.475,138.617 148.554,87.025 C150.765,84.876 152.906,82.41 156.122,81.553" fill="#FEFEFE"/>
    <path d="M850.26,348.758 C841.014,349.168 831.813,349.137 824.185,342.772 C809.557,330.567 799.17,305.89 818.725,286.467 C832.96,272.328 856.779,272.122 871.147,286.281 C872.527,287.64 873.552,289.573 875.831,289.759 C871.223,311.123 863.715,331.229 850.26,348.758" fill="#FFD9B4"/>
    <path d="M552.031,292.761 C556.814,287.237 561.806,282.081 568.61,278.837 C583.368,271.801 601.577,276.867 610.077,290.888 C615.658,300.093 620.041,309.672 617.217,320.955 C613.14,337.248 598.523,348.781 581.856,348.804 C580.254,348.806 578.506,348.217 577.099,349.564 C564.393,332.549 556.206,313.541 552.031,292.761" fill="#FFD9B4"/>
    <path d="M144.102,302.836 C151.194,303.893 155.655,301.465 159.459,294.783 C164.126,286.585 173.08,283.243 182.115,281.87 C201.788,278.881 216.74,288.467 222.156,307.676 C225.683,320.183 220.475,330.822 212.904,340.35 C205.289,349.934 194.811,352.69 183.042,351.711 C173.56,339.767 167.467,326.097 162.686,311.759 C160.14,304.125 159.242,303.523 151.407,303.662 C148.954,303.705 146.436,303.99 144.102,302.836" fill="#FFCEB4"/>
    <path d="M445.219,350.79 C435.056,350.615 421.777,335.508 419.208,325.092 C415.217,308.91 427.408,289.283 439.664,283.884 C450.643,279.047 460.966,280.767 470.949,286.681 C467.071,309.936 459.75,331.81 445.219,350.79" fill="#FFCEB4"/>
    <path d="M583.387,534.296 C587.494,530.88 591.814,529.889 596.345,529.886 C654.977,529.847 713.609,529.838 772.241,529.903 C776.874,529.908 781.458,530.662 785.203,534.271 C781.229,537.542 776.699,538.5 772,538.504 C713.701,538.551 655.403,538.548 597.104,538.509 C592.412,538.506 587.887,537.602 583.387,534.296" fill="#FDFDFD"/>
    <path d="M190.913,534.203 C194.864,530.807 199.227,529.892 203.76,529.888 C262.188,529.845 320.615,529.856 379.043,529.879 C380.606,529.88 382.816,529.2 383.37,531.172 C383.783,532.641 381.838,533.576 380.765,534.543 C377.055,537.888 372.342,538.474 367.706,538.481 C313.273,538.565 258.841,538.556 204.408,538.497 C199.74,538.492 195.148,537.707 190.913,534.203" fill="#FDFDFD"/>
    <path d="M385.992,565.704 C378.841,565.787 372.59,565.123 367.056,561.535 C365.23,560.351 363.117,558.649 363.428,556.507 C363.748,554.301 366.62,554.557 368.412,554.156 C376.64,552.314 385.012,551.406 391.73,545.158 C401.551,536.025 401.773,526.498 391.636,517.631 C388.883,515.223 385.952,513.017 383.209,510.598 C381.977,509.511 380.68,508.127 381.598,506.284 C382.46,504.553 384.25,504.309 385.947,504.581 C387.897,504.894 389.91,505.239 391.708,506.007 C400.447,509.744 407.77,515.452 413.588,522.919 C422.222,533.999 416.257,561.24 399.089,564.187 C394.49,564.976 389.945,565.975 385.992,565.704" fill="#FEF8EA"/>
    <path d="M786.022,565.597 C780.118,565.899 774.393,565.106 769.103,562.328 C766.71,561.071 763.922,559.24 764.318,556.521 C764.669,554.116 768.099,554.405 770.223,553.909 C773.118,553.235 776.167,553.25 779.114,552.754 C781.391,552.371 783.684,551.852 785.847,551.059 C803.154,544.707 805.946,529.313 792.004,517.188 C789.622,515.116 787.042,513.273 784.623,511.24 C783.088,509.951 781.346,508.431 782.412,506.216 C783.465,504.03 785.821,504.354 787.761,504.641 C792.289,505.31 796.348,507.347 799.983,509.973 C807.242,515.217 815.142,520.172 817.367,529.691 C819.869,540.399 817.373,550.171 810.152,558.518 C805.273,564.158 798.248,564.641 791.506,565.56 C789.71,565.805 787.852,565.597 786.022,565.597" fill="#FEF8EA"/>
    <path d="M529.133,157.69 C530.982,150.741 535.206,156.59 538.732,155.516 C526.228,168.652 524.407,184.472 524.749,200.758 C524.956,210.563 526.469,220.244 532.117,228.722 C532.104,229.386 532.188,230.069 532.062,230.711 C531.643,232.846 533.364,235.936 530.648,236.944 C528.064,237.904 525.5,236.123 523.451,234.374 C514.171,226.456 511.248,215.641 510.368,204.163 C509.586,193.953 511.161,183.934 515.171,174.463 C517.443,169.098 520.233,163.989 526.042,161.427 C527.579,160.749 528.592,159.342 529.133,157.69" fill="#FEFEFE"/>
    <path d="M192.061,565.888 C189.418,565.637 186.747,565.55 184.137,565.11 C167.29,562.264 157.779,548.252 160.978,531.349 C161.425,528.987 162.205,528.073 164.53,528.813 C164.689,528.864 164.853,528.913 165.017,528.923 C170.902,529.281 175.354,529.207 176.517,537.968 C177.795,547.598 187.46,550.782 196.429,552.752 C201.165,553.792 206.089,552.945 210.768,554.406 C212.183,554.847 214.325,554.867 214.598,556.231 C214.955,558.01 213.511,559.633 212.011,560.782 C207.162,564.497 201.463,565.429 195.576,565.686 C194.412,565.737 193.245,565.694 192.079,565.694 C192.073,565.758 192.067,565.823 192.061,565.888" fill="#FEF8EA"/>
    <path d="M551.09,77.677 C548.201,80.811 544.036,81.8 540.522,83.88 C531.1,89.458 522.749,96.213 516.564,105.293 C508.564,117.036 503.343,130.741 516.968,146.601 C510.539,145.359 504.527,143.118 499.298,139.074 C491.934,133.379 490.008,126.015 493.651,117.438 C496.917,109.746 502.434,103.767 508.733,98.549 C521.169,88.247 535.176,80.992 551.09,77.677" fill="#FEFEFE"/>
    <path d="M589.476,565.602 C586.314,565.757 583.192,565.536 580.056,564.992 C564.827,562.352 555.377,549.004 557.312,533.543 C558.112,527.147 562.435,530.28 565.385,529.739 C569.444,528.995 567.851,532.099 567.877,533.865 C567.972,540.382 571.672,544.664 576.686,548.015 C582.982,552.223 590.15,553.474 597.569,553.509 C601.4,553.527 605.175,553.614 608.914,554.7 C612.069,555.616 611.953,557.166 610.201,559.246 C606.221,563.972 600.55,564.752 594.953,565.562 C593.163,565.821 591.304,565.602 589.476,565.602" fill="#FEF8EA"/>
    <path d="M913.174,277.273 C913.204,279.741 912.874,283.215 911.933,286.6 C909.486,295.402 900.861,300.655 891.88,299.059 C889.937,298.714 889.453,298.183 889.898,296.235 C892.569,284.555 894.187,272.716 894.982,260.763 C895.049,259.755 895.291,259.087 896.44,258.517 C902.482,255.523 909.321,258.094 911.579,264.436 C912.935,268.245 913.204,272.224 913.174,277.273" fill="#FEF8EA"/>
    <path d="M446.637,374.261 C460.548,358.489 470.845,340.781 477.789,321.104 C478.354,319.505 479.075,318.539 480.926,318.593 C484.28,318.691 487.521,317.936 490.74,317.065 C491.671,316.813 492.784,316.273 493.572,317.068 C494.61,318.115 493.637,319.217 493.247,320.251 C486.542,338.046 476.225,353.283 461.368,365.32 C456.873,368.962 452.141,372.192 446.637,374.261" fill="#DCAE53"/>
    <path d="M382.087,422.99 C382.123,435.081 376.126,442.223 365.679,444.118 C363.216,444.564 362.436,443.96 362.064,441.614 C360.998,434.897 359.801,428.199 358.506,421.523 C358.146,419.668 358.483,418.804 360.413,418.367 C366.398,417.012 372.358,415.542 378.307,414.037 C379.969,413.617 380.845,414.023 381.072,415.769 C381.437,418.563 381.855,421.351 382.087,422.99" fill="#FF7164"/>
    <path d="M483.257,303.007 C485.778,291.028 487.805,279.457 488.339,267.662 C488.522,263.607 490.012,262.982 493.349,265.393 C494.508,266.23 495.67,267.471 496.15,268.778 C499.611,278.198 499.82,287.609 494.964,296.637 C492.793,300.673 489.491,302.231 483.257,303.007" fill="#FEF7E9"/>
    <path d="M536.856,298.671 C529.615,297.124 525.537,292.841 523.925,286.081 C522.321,279.358 522.358,272.629 523.906,265.896 C524.361,263.916 525.188,262.11 526.474,260.568 C527.652,259.155 529.192,257.491 531.022,258.089 C532.883,258.698 531.937,260.934 532.052,262.451 C532.857,273.053 534.285,283.563 536.518,293.96 C536.826,295.392 537.456,296.783 536.856,298.671" fill="#FEF7E9"/>
    <path d="M499.238,156.681 C506.143,159.405 506.143,159.405 502.52,165.584 C500.85,162.744 499.728,159.983 499.238,156.681" fill="#F4F1EE"/>
    <path d="M557.085,75.717 C555.46,77.611 553.347,78.023 550.999,77.718 C552.696,76.043 554.864,75.8 557.085,75.717" fill="#EEE7DD"/>
    <path d="M704.56,367.384 C682.137,366.174 662.833,359.962 650.619,339.906 C649.931,338.775 649.366,337.563 648.81,336.359 C647.317,333.127 647.228,329.893 650.73,328.156 C654.295,326.388 657.225,327.859 658.823,331.514 C662.31,339.487 668.135,345.325 675.767,349.161 C695.471,359.064 715.171,358.553 734.524,348.137 C740.99,344.656 745.628,339.245 748.692,332.496 C750.793,327.867 753.891,326.226 757.084,328.093 C761.049,330.411 760.292,333.784 758.694,337.225 C750.806,354.209 736.327,362.042 718.926,365.615 C714.062,366.613 709.042,366.852 704.56,367.384" fill="#6E4100"/>
    <path d="M644.101,273.022 C644.146,276.43 643.08,280.72 640.052,284.32 C636.01,289.124 629.744,290.932 624.363,288.978 C617.654,286.542 612.404,278.912 612.576,271.46 C612.746,264.092 615.768,257.916 621.338,253.146 C626.609,248.632 633.42,249.322 638.178,254.784 C642.397,259.627 644.115,265.432 644.101,273.022" fill="#6E4100"/>
    <path d="M792.942,271.637 C792.502,277.456 791.346,282.966 786.296,286.624 C781.494,290.101 776.257,291.1 770.888,287.978 C764.47,284.246 761.106,278.383 761.195,271.094 C761.277,264.376 764.164,258.5 769.146,253.896 C774.934,248.547 781.901,249.058 787.087,255.05 C791.212,259.816 792.479,265.595 792.942,271.637" fill="#6E4100"/>
    <path d="M640.502,180.151 C638.448,179.523 636.316,179.078 634.354,178.235 C626.341,174.793 619.121,170.102 612.794,164.077 C610.406,161.803 608.813,159.25 611.694,156.378 C614.337,153.742 616.742,155.115 619.043,157.276 C625.77,163.593 633.102,168.887 642.309,171.11 C644.828,171.719 646.312,173.635 645.769,176.372 C645.229,179.097 643.293,180.162 640.502,180.151" fill="#6E4300"/>
    <path d="M694.885,270.947 C694.888,267.739 696.624,266.015 699.695,265.78 C702.98,265.53 707.379,271.345 707.145,275.545 C706.968,278.733 704.948,280.335 701.991,280.496 C698.702,280.676 694.857,275.32 694.885,270.947" fill="#6F4300"/>
    <path d="M361.237,351.764 C361.612,358.098 359.924,363.963 356.969,369.473 C350.605,381.342 338.617,386.422 326.244,382.592 C314.569,378.978 308.503,368.801 309.972,355.159 C310.971,345.886 314.897,337.895 321.405,331.339 C333.009,319.651 349.129,322.03 357.443,336.492 C360.152,341.203 361.575,346.277 361.237,351.764" fill="#6E4100"/>
    <path d="M390.83,276.292 C391.617,268.219 393.707,260.08 403.59,256.75 C406.069,255.915 405.107,253.716 405.19,252.105 C405.321,249.534 405.675,247.21 408.839,247.311 C412.07,247.415 412.483,249.99 412.025,252.376 C411.207,256.635 412.869,259.481 415.636,262.681 C422.183,270.251 422.871,279.183 418.343,286.64 C414.676,292.678 408.67,295.733 402.978,294.455 C396.507,293 391.929,287.729 391.085,280.712 C390.947,279.56 390.946,278.391 390.83,276.292" fill="#6E4100"/>
    <path d="M247.964,276.08 C249.201,267.928 250.839,259.207 261.885,256.638 C264.269,256.083 263.835,253.481 263.88,251.646 C263.941,249.209 264.324,247.176 267.285,247.303 C270.18,247.427 271.058,249.809 270.509,251.924 C269.144,257.179 271.464,260.733 274.368,264.83 C279.181,271.624 280.094,279.253 275.461,286.788 C271.82,292.71 266.108,295.598 260.509,294.527 C254.283,293.336 249.597,288.378 248.372,281.564 C248.11,280.103 248.14,278.59 247.964,276.08" fill="#6E4100"/>
    <path d="M427.24,150.345 C427.38,152.565 426.719,154.332 424.346,154.883 C422.007,155.426 420.057,154.857 419.071,152.433 C418.184,150.249 417.018,148.272 415.104,146.841 C411.946,144.481 408.658,143.387 405.134,146.118 C402.621,148.067 400.055,148.213 398.312,145.45 C396.644,142.805 397.707,140.435 400.266,138.652 C405.52,134.991 410.99,134.743 416.669,137.46 C422.413,140.208 427.108,145.974 427.24,150.345" fill="#6F4300"/>
    <path d="M342.108,275.875 C342.056,280.868 338.243,285.842 335.076,285.699 C331.851,285.553 330.255,283.58 330.317,280.501 C330.4,276.329 334.549,271.48 337.651,271.758 C340.589,272.022 342.043,273.773 342.108,275.875" fill="#704401"/>
    <path d="M351.976,352.582 C351.671,358.612 349.776,364.672 345.052,369.576 C340.448,374.355 334.349,375.51 328.164,373.065 C321.97,370.616 319.084,365.834 319.2,359.482 C319.373,350.035 323.138,342.05 330.614,336.146 C335.706,332.125 341.176,332.661 345.858,337.189 C350.024,341.216 351.883,346.208 351.976,352.582" fill="#FEFEFE"/>
  </g>
</svg>